<?xml version="1.0" standalone="no"?>
<!DOCTYPE svg PUBLIC "-//W3C//DTD SVG 20010904//EN"
 "http://www.w3.org/TR/2001/REC-SVG-20010904/DTD/svg10.dtd">
<svg version="1.0" xmlns="http://www.w3.org/2000/svg"
 width="888.000000pt" height="249.000000pt" viewBox="0 0 888.000000 249.000000"
 preserveAspectRatio="xMidYMid meet">

<g transform="translate(0.000000,249.000000) scale(0.100000,-0.100000)"
fill="#000000" stroke="none">
<path d="M1052 1887 c-105 -106 -192 -199 -192 -207 0 -8 159 -174 352 -367
l353 -353 -160 0 -160 0 -194 -194 c-139 -139 -192 -199 -188 -210 6 -14 48
-16 389 -16 l383 0 193 193 c105 106 192 197 192 202 0 6 -87 97 -193 203
l-192 192 -178 0 -177 0 0 165 0 165 178 0 177 0 194 194 c139 139 192 199
188 210 -6 14 -48 16 -389 16 l-383 0 -193 -193z m723 -17 l-160 -160 -192 0
-193 0 0 -172 0 -173 -157 158 -158 157 175 175 175 175 335 0 335 0 -160
-160z m14 -762 l170 -173 -172 -172 -172 -173 -335 0 -335 0 160 160 160 160
192 0 c177 0 193 1 193 17 0 10 -75 93 -167 185 l-168 168 152 0 152 0 170
-172z"/>
<path d="M2722 1887 l-192 -192 0 -395 0 -395 183 -183 182 -182 383 0 c341 0
383 2 389 16 4 11 -49 71 -188 210 l-194 194 -172 0 -173 0 0 350 0 350 183 0
182 0 194 194 c139 139 192 199 188 210 -6 14 -48 16 -389 16 l-383 0 -193
-193z m718 -22 l-165 -165 -187 0 -188 0 0 -395 0 -395 183 0 182 0 160 -160
160 -160 -335 0 -335 0 -172 172 -173 173 0 365 0 365 182 182 183 183 335 0
335 0 -165 -165z"/>
<path d="M4912 1887 l-192 -192 0 -395 0 -395 183 -183 182 -182 196 0 195 0
190 190 c104 105 190 196 192 203 1 6 -85 99 -192 206 -139 138 -199 192 -210
188 -14 -6 -16 -31 -16 -187 l0 -180 -155 0 -155 0 0 350 0 350 183 0 182 0
194 194 c139 139 192 199 188 210 -6 14 -48 16 -389 16 l-383 0 -193 -193z
m723 -17 l-160 -160 -192 0 -193 0 0 -400 0 -400 200 0 200 0 0 167 0 168 150
-150 c83 -82 150 -154 150 -160 0 -5 -75 -85 -167 -177 l-168 -168 -175 0
-175 0 -172 172 -173 173 0 365 0 365 182 182 183 183 335 0 335 0 -160 -160z"/>
<path d="M6532 1887 l-192 -192 0 -400 0 -400 177 -177 178 -178 205 0 205 0
188 188 187 187 0 400 0 400 -183 183 -182 182 -195 0 -195 0 -193 -193z m731
-45 l177 -177 0 -360 0 -360 -182 -182 -183 -183 -175 0 -175 0 -172 172 -173
173 0 370 0 370 177 177 178 178 175 0 175 0 178 -178z"/>
<path d="M6700 1310 l0 -400 205 0 205 0 0 400 0 400 -205 0 -205 0 0 -400z
m370 0 l0 -350 -165 0 -165 0 0 350 0 350 165 0 165 0 0 -350z"/>
</g>
</svg>
